<svg xmlns="http://www.w3.org/2000/svg" viewBox="0 0 64 64">
  <defs>
    <linearGradient id="bg" x1="0%" y1="0%" x2="100%" y2="100%">
      <stop offset="0%" style="stop-color:#3b82f6"/>
      <stop offset="100%" style="stop-color:#06b6d4"/>
    </linearGradient>
  </defs>
  <rect width="64" height="64" rx="14" fill="url(#bg)"/>
  <!-- Sun -->
  <circle cx="38" cy="20" r="8" fill="#fbbf24" opacity="0.9"/>
  <g stroke="#fbbf24" stroke-width="2" stroke-linecap="round" opacity="0.7">
    <line x1="38" y1="8" x2="38" y2="5"/>
    <line x1="38" y1="32" x2="38" y2="35"/>
    <line x1="26" y1="20" x2="23" y2="20"/>
    <line x1="50" y1="20" x2="53" y2="20"/>
    <line x1="29.5" y1="11.5" x2="27.4" y2="9.4"/>
    <line x1="46.5" y1="28.5" x2="48.6" y2="30.6"/>
    <line x1="46.5" y1="11.5" x2="48.6" y2="9.4"/>
    <line x1="29.5" y1="28.5" x2="27.4" y2="30.6"/>
  </g>
  <!-- Cloud -->
  <ellipse cx="24" cy="38" rx="12" ry="8" fill="white" opacity="0.95"/>
  <ellipse cx="34" cy="36" rx="10" ry="7" fill="white" opacity="0.95"/>
  <ellipse cx="18" cy="37" rx="8" ry="6" fill="white" opacity="0.9"/>
  <!-- Rain drops -->
  <line x1="18" y1="46" x2="16" y2="52" stroke="#93c5fd" stroke-width="2" stroke-linecap="round" opacity="0.8"/>
  <line x1="26" y1="46" x2="24" y2="54" stroke="#93c5fd" stroke-width="2" stroke-linecap="round" opacity="0.8"/>
  <line x1="34" y1="44" x2="32" y2="50" stroke="#93c5fd" stroke-width="2" stroke-linecap="round" opacity="0.8"/>
</svg>